<svg width="35" height="35" viewBox="0 0 35 35" fill="none" xmlns="http://www.w3.org/2000/svg">
<circle cx="17.7462" cy="17.2379" r="17.2379" fill="#EFEFEF"/>
<circle cx="17.7462" cy="17.2379" r="16.7379" stroke="black" stroke-opacity="0.03"/>
<g clip-path="url(#clip0_48_31)">
<path fill-rule="evenodd" clip-rule="evenodd" d="M17.7463 19.996C19.2696 19.996 20.5044 18.7612 20.5044 17.2379C20.5044 15.7147 19.2696 14.4799 17.7463 14.4799C16.2231 14.4799 14.9883 15.7147 14.9883 17.2379C14.9883 18.7612 16.2231 19.996 17.7463 19.996ZM17.7463 19.0766C18.7618 19.0766 19.5851 18.2534 19.5851 17.2379C19.5851 16.2224 18.7618 15.3992 17.7463 15.3992C16.7309 15.3992 15.9076 16.2224 15.9076 17.2379C15.9076 18.2534 16.7309 19.0766 17.7463 19.0766Z" fill="#A0A0A0"/>
<path d="M20.5041 14.0201C20.2502 14.0201 20.0444 14.2259 20.0444 14.4798C20.0444 14.7337 20.2502 14.9395 20.5041 14.9395C20.758 14.9395 20.9638 14.7337 20.9638 14.4798C20.9638 14.2259 20.758 14.0201 20.5041 14.0201Z" fill="#A0A0A0"/>
<path fill-rule="evenodd" clip-rule="evenodd" d="M12.9901 13.6874C12.6895 14.2774 12.6895 15.0498 12.6895 16.5944V17.8815C12.6895 19.4262 12.6895 20.1985 12.9901 20.7885C13.2545 21.3074 13.6764 21.7294 14.1954 21.9938C14.7854 22.2944 15.5577 22.2944 17.1024 22.2944H18.3895C19.9341 22.2944 20.7065 22.2944 21.2964 21.9938C21.8154 21.7294 22.2373 21.3074 22.5017 20.7885C22.8024 20.1985 22.8024 19.4262 22.8024 17.8815V16.5944C22.8024 15.0498 22.8024 14.2774 22.5017 13.6874C22.2373 13.1685 21.8154 12.7466 21.2964 12.4821C20.7065 12.1815 19.9341 12.1815 18.3895 12.1815H17.1024C15.5577 12.1815 14.7854 12.1815 14.1954 12.4821C13.6764 12.7466 13.2545 13.1685 12.9901 13.6874ZM18.3895 13.1009H17.1024C16.3149 13.1009 15.7795 13.1016 15.3657 13.1354C14.9627 13.1683 14.7565 13.228 14.6128 13.3013C14.2668 13.4776 13.9855 13.7589 13.8092 14.1048C13.7359 14.2486 13.6763 14.4547 13.6433 14.8578C13.6095 15.2716 13.6088 15.8069 13.6088 16.5944V17.8815C13.6088 18.669 13.6095 19.2043 13.6433 19.6181C13.6763 20.0212 13.7359 20.2273 13.8092 20.3711C13.9855 20.7171 14.2668 20.9984 14.6128 21.1746C14.7565 21.2479 14.9627 21.3076 15.3657 21.3405C15.7795 21.3743 16.3149 21.3751 17.1024 21.3751H18.3895C19.177 21.3751 19.7123 21.3743 20.1261 21.3405C20.5292 21.3076 20.7353 21.2479 20.8791 21.1746C21.225 20.9984 21.5063 20.7171 21.6826 20.3711C21.7559 20.2273 21.8156 20.0212 21.8485 19.6181C21.8823 19.2043 21.883 18.669 21.883 17.8815V16.5944C21.883 15.8069 21.8823 15.2716 21.8485 14.8578C21.8156 14.4547 21.7559 14.2486 21.6826 14.1048C21.5063 13.7589 21.225 13.4776 20.8791 13.3013C20.7353 13.228 20.5292 13.1683 20.1261 13.1354C19.7123 13.1016 19.177 13.1009 18.3895 13.1009Z" fill="#A0A0A0"/>
</g>
<defs>
<clipPath id="clip0_48_31">
<rect width="11.0323" height="11.0323" fill="white" transform="translate(12.23 11.7218)"/>
</clipPath>
</defs>
</svg>
