<svg width="14" height="14" viewBox="0 0 14 14" fill="none" xmlns="http://www.w3.org/2000/svg">
<g clip-path="url(#clip0_48_5)">
<path d="M9.9927 8.30378C9.82645 8.22503 9.0302 7.83128 8.88145 7.77003C8.7327 7.70878 8.6277 7.69128 8.51395 7.85753C8.4002 8.02378 8.09395 8.38253 7.9977 8.49628C7.90145 8.61003 7.81395 8.61878 7.6477 8.49628C7.17019 8.30465 6.72918 8.03235 6.34395 7.69128C5.99522 7.36295 5.69999 6.9821 5.46895 6.56253C5.3727 6.40503 5.46895 6.31753 5.53895 6.23003C5.60895 6.14253 5.69645 6.04628 5.78395 5.95003C5.84793 5.86679 5.90087 5.77562 5.94145 5.67878C5.96315 5.63375 5.97443 5.5844 5.97443 5.53441C5.97443 5.48441 5.96315 5.43507 5.94145 5.39003C5.94145 5.31128 5.57395 4.51503 5.43395 4.19128C5.29395 3.86753 5.17145 3.91128 5.0752 3.91128H4.7252C4.55847 3.91778 4.40113 3.99016 4.2877 4.11253C4.10461 4.28725 3.95959 4.49789 3.86172 4.73128C3.76385 4.96466 3.71524 5.21574 3.71895 5.46878C3.7637 6.09002 3.99213 6.68392 4.3752 7.17503C5.07815 8.21929 6.03986 9.06342 7.16645 9.62503C7.55145 9.79128 7.84895 9.88753 8.0852 9.96628C8.41695 10.0666 8.76761 10.0875 9.10895 10.0275C9.33565 9.98154 9.5505 9.88946 9.74015 9.75701C9.9298 9.62455 10.0902 9.45455 10.2114 9.25753C10.3123 9.01423 10.3456 8.74818 10.3077 8.48753C10.2639 8.42628 10.1589 8.38253 9.9927 8.30378Z" fill="#5A5A5A"/>
<path d="M11.6286 2.34498C11.0235 1.73413 10.3022 1.25064 9.50718 0.923029C8.7122 0.595419 7.85967 0.430323 6.99986 0.437479C5.86087 0.443439 4.74338 0.748132 3.75899 1.32113C2.7746 1.89412 1.95778 2.71536 1.3901 3.70282C0.822417 4.69028 0.523752 5.8094 0.52393 6.94841C0.524109 8.08742 0.823124 9.20644 1.39111 10.1937L0.516113 13.5625L3.96361 12.6875C4.91669 13.2061 5.98482 13.4769 7.06986 13.475H6.99986C8.29304 13.4834 9.55943 13.1065 10.6375 12.3923C11.7156 11.6781 12.5566 10.659 13.0532 9.46494C13.5498 8.27087 13.6795 6.95597 13.4258 5.6879C13.172 4.41982 12.5464 3.25605 11.6286 2.34498ZM6.99986 12.355C6.0291 12.3557 5.07638 12.0926 4.24361 11.5937L4.05111 11.48L2.00361 12.0137L2.54611 10.0187L2.42361 9.81748C1.7248 8.69208 1.4634 7.34932 1.68901 6.04397C1.91461 4.73861 2.61153 3.56148 3.64753 2.73592C4.68354 1.91035 5.98654 1.4938 7.30932 1.56528C8.6321 1.63677 9.88262 2.19132 10.8236 3.12373C11.3281 3.62413 11.7279 4.21994 11.9998 4.87642C12.2717 5.53289 12.4103 6.23692 12.4074 6.94748C12.405 8.38093 11.8346 9.755 10.821 10.7686C9.80739 11.7822 8.43331 12.3527 6.99986 12.355Z" fill="#5A5A5A"/>
</g>
<defs>
<clipPath id="clip0_48_5">
<rect width="14" height="14" fill="white"/>
</clipPath>
</defs>
</svg>
